<svg xmlns="http://www.w3.org/2000/svg" width="24" height="24" version="1.0" viewBox="0 0 1280 1158"><path fill="#607d8b" d="M629.5.6c-34.9 2.1-56.4 4.5-83 9.4-136.2 25.1-260.1 99.7-347 209C97.2 347.6 55.1 511.2 82.1 675c17.2 104.5 63.7 202.7 134.3 284 12.9 14.9 41.9 43.9 56.6 56.6 88.2 76.4 193.9 123.6 308.5 137.8 35.9 4.5 88.3 5.4 122 2.2 74.1-7 141-25.8 204.5-57.2 59.1-29.2 108.1-64.4 154.5-110.8 87.7-87.8 144.4-199.3 162.9-320.6 5.2-34.2 6.1-46.7 6-88.5 0-40.5-.8-52.4-5.4-84.7-22.3-153.6-108.2-293.9-236.1-385.5C905.7 48 808.5 12 704.5 2.5 688.1 1 641.9-.2 629.5.6zm50 117.9c60.3 5.1 111.7 19 165.3 44.6C905.5 192 963.7 239 1007.1 294c41.5 52.6 71.6 115.7 86.8 181.7 3 13.2 5 27.8 3.4 25.7-1.4-2-29.4-10.1-92.8-26.9-226.1-60-385.7-75.1-543-51.4-66.7 10.1-140.4 29.8-202.2 54.4-37.9 15-65.6 27.9-70.7 33.1-1.5 1.4-1.6 1.3-1.6-.8 0-1.3.9-7.6 2-14.1 10.6-62.7 39.2-130.5 77.8-184.2C342.5 206.2 455.6 138.1 583 120.9c28.9-3.9 68.1-4.9 96.5-2.4zM932 658.4c26.3 4.2 62.9 13.8 88.7 23.2 5.7 2.1 7.5 3.2 7.9 5 .6 2.5 1.9 2.8 6.4 1.5 1.8-.5 5.4.4 12.5 3.1 19 7.4 38.7 16.1 39.1 17.3.7 1.8-6.8 24.4-13.8 42-50.5 125.5-152 222-279.8 265.8-16.7 5.7-55.2 16.1-56.2 15.1-.5-.4 1-43.8 2.2-62.6 7.6-122.6 29.1-211.9 63.5-263.3 19.2-28.7 38.6-42.7 66.6-48 10.2-1.9 48.5-1.4 62.9.9zm-537.5 17.7c40.7 5 64 22.6 83.6 63.3 18.4 38.3 28.5 88.7 33 164.1 1.2 20.6.8 115.9-.5 117.2-.9 1-21.2-5.8-39.1-12.9-87.2-35-162.2-96.2-214-174.8-18-27.4-31-52-43.2-82.5-5.5-13.5-13.6-37.1-14.5-41.9-.2-1.5 1.5-2.4 10.7-5.3 44.7-13.9 97.9-25 132.5-27.6 11.2-.9 43.4-.6 51.5.4z"/></svg>