<svg xmlns="http://www.w3.org/2000/svg" width="24" height="24" version="1.0" viewBox="0 0 1279 1280"><path fill="#9e9e9e" d="M611 .6c-29.8 2-50.4 4.1-70.7 7.4-155.4 25.4-296.1 105.6-393.5 224.1C72.5 322.5 23.2 434.6 6.6 550.2c-4.9 33.5-6 50.7-6 89.8 0 39.1 1.1 56.3 6 89.8 16.6 115.6 65.9 227.7 140.2 318.1 97.4 118.5 238.1 198.7 393.5 224.1 34.1 5.5 59.7 7.5 99.2 7.5s65.1-2 99.2-7.5c155.4-25.4 296.1-105.6 393.5-224.1 74.3-90.4 123.6-202.5 140.2-318.1 4.9-33.5 6-50.7 6-89.8 0-39.1-1.1-56.3-6-89.8-14.3-100.2-54-199.4-112.6-281.9-4.8-6.8-8.8-12.6-8.8-12.8 0-.2 11.3-19.6 25.1-43.2 32.7-55.6 34.3-59.7 34.3-85.3 0-16.8-1.9-25.9-8.4-39.5-11.8-24.8-36.9-44.3-64.5-50-10.3-2.1-27-2.1-36.6.1-21.4 4.7-42.1 18-54.7 35-2.6 3.5-10.8 15.9-18.2 27.7l-13.4 21.4-12.1-8.2C910.8 50.7 806 13 694 2.5 678.6 1 623.5-.2 611 .6zm67.1 99.4c92.3 7.1 185.2 39.1 261.4 89.9 19.6 13.1 21.5 14.5 21.2 15.7-.4 2-347.2 546.4-347.8 546.2-.8-.3-217.6-212.5-235.4-230.4-13.6-13.6-20.1-18.2-33-23.5-12.9-5.3-22.6-7.2-38-7.3-42.8-.2-75.2 24.7-86 66-7.1 27.4-1.5 58.8 14.3 79.6 4.1 5.5 178.4 219.2 287.1 352.2 40.6 49.6 43.9 53 59 60.2 15.8 7.6 27.8 9.9 47.5 9.1 15.8-.6 26.2-3 39.5-9.3 13.3-6.2 27.7-18.4 34.4-29 2.2-3.5 137.5-233.9 347.7-592.2 36.3-61.9 45.6-77 46.6-76 2.7 2.9 18.1 30.5 26.9 48.3 28.9 58.6 46.2 117.9 54.2 186 2.5 21.6 2.5 87.4 0 109-13.2 112-54.5 209.6-124.7 294.5-13.2 16.1-48.9 51.8-65 65-88.8 73.4-196.7 117.3-309.9 126-17.4 1.3-59.8 1.3-77.2 0-102.7-7.9-203.3-45.6-286.3-107.4-20.4-15.2-35.9-28.7-57.2-50-43.4-43.4-74.7-87.1-101.9-142.1-28.9-58.6-46.2-117.9-54.2-186-2.5-21.6-2.5-87.4 0-109 8-68.1 25.3-127.4 54.2-186 27.2-55 58.5-98.7 101.9-142.1 28.1-28.1 49.9-46 81.7-67.2 76-50.6 169-82.9 259.4-90.1 15.9-1.2 63.8-1.3 79.6-.1z"/></svg>